<?xml version="1.0" encoding="utf-8"?>
<!-- Generator: Adobe Illustrator 16.0.0, SVG Export Plug-In . SVG Version: 6.00 Build 0)  -->
<!DOCTYPE svg PUBLIC "-//W3C//DTD SVG 1.1//EN" "http://www.w3.org/Graphics/SVG/1.1/DTD/svg11.dtd">
<svg version="1.1" id="Layer_1" xmlns="http://www.w3.org/2000/svg" xmlns:xlink="http://www.w3.org/1999/xlink" x="0px" y="0px"
	 width="462.226px" height="139.617px" viewBox="74.845 326.191 462.226 139.617"
	 enable-background="new 74.845 326.191 462.226 139.617" xml:space="preserve">
<rect x="396.039" y="453.32" fill="#FF9662" width="65.771" height="10.906"/>
<g>
	<polygon fill="#231C19" points="522.169,389.381 500.439,420.352 478.71,389.381 463.808,389.381 493.862,432.008 493.862,464.227 
		507.017,464.227 507.017,432.008 507.017,431.924 537.071,389.381 	"/>
	<path fill="#231C19" d="M128.128,425.347l-0.999-0.749l0.916-0.916c3.58-3.746,5.578-8.575,5.578-13.486
		c0-11.489-10.573-20.814-23.561-20.814H74.845v74.845h37.131c13.737,0,24.976-9.907,24.976-22.063
		C136.953,435.671,133.706,429.593,128.128,425.347 M87.916,400.287h22.063c6.161,0,11.073,4.413,11.073,9.908
		c0,5.494-4.995,9.906-11.073,9.906H87.916V400.287z M111.977,453.32H87.916v-22.229h24.061c6.91,0,12.488,4.995,12.488,11.156
		C124.465,448.325,118.887,453.32,111.977,453.32"/>
	<polygon fill="#231C19" points="355.328,439.334 333.682,389.381 319.279,389.381 352.331,464.227 358.325,464.227 
		391.377,389.381 376.974,389.381 	"/>
	<path fill="#231C19" d="M189.07,387.883c-21.479,0-38.963,17.4-38.963,38.963s17.4,38.963,38.963,38.963s38.963-17.4,38.963-38.963
		S210.633,387.883,189.07,387.883z M189.07,452.904c-14.403,0-26.142-11.739-26.142-26.142c0-14.403,11.739-26.142,26.142-26.142
		s26.142,11.738,26.142,26.142C215.211,441.165,203.473,452.904,189.07,452.904z"/>
	<polygon fill="#231C19" points="292.638,437.669 250.095,389.381 243.601,389.381 243.601,464.227 256.672,464.227 
		256.672,415.939 299.131,464.227 305.708,464.227 305.708,389.381 292.638,389.381 	"/>
	<path fill="#231C19" d="M428.925,387.883c-14.403,0-26.142,11.738-26.142,26.142s11.738,26.142,26.142,26.142
		c14.402,0,26.142-11.738,26.142-26.142S443.327,387.883,428.925,387.883z M428.925,429.01c-8.325,0-15.069-6.743-15.069-15.068
		s6.744-15.069,15.069-15.069s15.068,6.744,15.068,15.069S437.25,429.01,428.925,429.01z"/>
	<polygon fill="#231C19" points="145.694,339.096 145.694,364.405 138.701,364.405 138.701,326.941 138.701,326.941 
		138.701,326.941 146.527,326.941 158.016,347.671 169.588,326.941 177.414,326.941 177.414,326.941 177.414,326.941 
		177.414,364.405 170.421,364.405 170.421,339.096 160.514,357.245 155.519,357.245 	"/>
	<polygon fill="#231C19" points="444.243,326.941 444.243,333.435 455.232,333.435 455.232,364.405 462.227,364.405 
		462.227,333.435 473.299,333.435 473.299,326.941 	"/>
	<polygon fill="#231C19" points="403.782,326.941 403.782,333.435 414.854,333.435 414.854,364.405 421.848,364.405 
		421.848,333.435 432.838,333.435 432.838,326.941 	"/>
	<rect x="334.182" y="326.941" fill="#231C19" width="6.993" height="37.464"/>
	<path fill="#231C19" d="M248.18,349.253h5.661l10.49,15.152h7.992l-10.573-15.319c5.994-0.833,10.573-5.412,10.573-10.99l0,0l0,0
		c0-6.161-5.661-11.156-12.571-11.156h-18.565v37.464h6.993V349.253z M248.18,332.852h11.572c3.247,0,5.911,2.331,5.911,5.245l0,0
		l0,0c0,2.914-2.664,5.245-5.911,5.245H248.18V332.852z"/>
	<path fill="#231C19" d="M209.8,339.429l5.412,11.739h-10.906L209.8,339.429z M208.052,326.941l-17.317,37.464h7.493l3.331-7.16
		h16.484l3.331,7.16h7.493l-17.4-37.464H208.052z"/>
	<path fill="#231C19" d="M305.708,326.941h-18.565v37.464h6.993v-15.152h5.661l10.49,15.152h7.993l-10.573-15.319
		c5.994-0.833,10.573-5.412,10.573-10.99l0,0l0,0C318.28,331.936,312.702,326.941,305.708,326.941 M311.619,338.097L311.619,338.097
		c0,2.914-2.664,5.245-5.911,5.245h-11.572v-10.49h11.572C308.955,332.852,311.619,335.266,311.619,338.097L311.619,338.097z"/>
	<path fill="#231C19" d="M374.727,326.191c-10.74,0-19.481,8.742-19.481,19.481s8.741,19.481,19.481,19.481
		c10.739,0,19.481-8.742,19.481-19.481S385.466,326.191,374.727,326.191z M374.727,358.161c-6.91,0-12.488-5.578-12.488-12.488
		s5.578-12.488,12.488-12.488s12.487,5.578,12.487,12.488S381.553,358.161,374.727,358.161z"/>
</g>
</svg>
