<?xml version="1.0" encoding="UTF-8" standalone="no"?>
<svg
   xmlns:dc="http://purl.org/dc/elements/1.1/"
   xmlns:cc="http://creativecommons.org/ns#"
   xmlns:rdf="http://www.w3.org/1999/02/22-rdf-syntax-ns#"
   xmlns:svg="http://www.w3.org/2000/svg"
   xmlns="http://www.w3.org/2000/svg"
   viewBox="0 0 404.93332 138.89333"
   height="138.89333"
   width="404.93332"
   xml:space="preserve"
   id="svg2"
   version="1.1"><metadata
     id="metadata8"><rdf:RDF><cc:Work
         rdf:about=""><dc:format>image/svg+xml</dc:format><dc:type
           rdf:resource="http://purl.org/dc/dcmitype/StillImage" /></cc:Work></rdf:RDF></metadata><defs
     id="defs6" /><g
     transform="matrix(1.3333333,0,0,-1.3333333,0,138.89333)"
     id="g10"><g
       transform="scale(0.1)"
       id="g12"><path
         id="path14"
         style="fill:#000;fill-opacity:1;fill-rule:nonzero;stroke:none"
         d="M 7.14844,585.156 H 48.4688 V 231.961 H 7.14844 v 353.195" /><path
         id="path16"
         style="fill:#000;fill-opacity:1;fill-rule:nonzero;stroke:none"
         d="m 324.133,585.156 h 42.144 l 56.805,-222.629 -3.019,222.629 h 41.324 V 231.961 h -42.141 l -54.555,213.301 0.762,-213.301 h -41.32 v 353.195" /><path
         id="path18"
         style="fill:#000;fill-opacity:1;fill-rule:nonzero;stroke:none"
         d="m 1094.89,585.156 h 41.82 V 273.277 h 83.14 l -30,-41.316 h -94.96 v 353.195" /><path
         id="path20"
         style="fill:#000;fill-opacity:1;fill-rule:nonzero;stroke:none"
         d="M 1469.22,588.605 V 309.191 c 0,-30.007 8.52,-35.902 23.29,-35.902 14.76,0 22.28,8.359 21.32,37.375 v 277.941 h 41.31 V 310.664 c 0,-53.609 -12.45,-78.703 -63.62,-78.703 -48.7,0 -63.63,22.637 -63.63,77.23 v 279.414 h 41.33" /><path
         id="path22"
         style="fill:#000;fill-opacity:1;fill-rule:nonzero;stroke:none"
         d="m 2209.52,585.156 h 41.33 V 231.961 h -41.33 v 353.195" /><path
         id="path24"
         style="fill:#000;fill-opacity:1;fill-rule:nonzero;stroke:none"
         d="m 2904.64,585.156 h 108.07 l -20,-41.32 h -46.25 V 436.105 h 54.59 l -20,-41.324 h -34.59 V 273.277 h 73.13 l -20,-41.316 h -94.95 v 353.195" /><path
         id="path26"
         style="fill:#000;fill-opacity:1;fill-rule:nonzero;stroke:none"
         d="m 2613.46,585.156 -34.2,-221.207 -34.18,221.207 h -44.28 l 62.48,-353.195 h 31.97 l 62.48,353.195 h -44.27" /><path
         id="path28"
         style="fill:#000;fill-opacity:1;fill-rule:nonzero;stroke:none"
         d="m 839.23,523.254 c -1.601,46.398 -15.601,68.801 -63.464,68.801 -48.7,0 -63.625,-23.125 -63.625,-77.731 v -204.64 c 0,-54.606 14.925,-77.723 63.625,-77.723 49.273,0 62.625,23.812 63.543,73.023 h 0.086 v 65.586 l -41.36,-20 v -44.851 c -0.16,-24.442 -8.207,-32.43 -21.289,-32.43 -13.957,0 -23.277,6.391 -23.277,36.395 v 204.64 c 0,30.008 8.418,36.406 23.277,36.406 12.988,0 20.309,-6.773 21.289,-27.515 v -65.547 l 41.36,20 v 45.586 h -0.165" /><path
         id="path30"
         style="fill:#000;fill-opacity:1;fill-rule:nonzero;stroke:none"
         d="m 1851.59,514.324 c 0.99,30.008 7.08,36.406 23.29,36.406 15.8,0 19.15,-11.828 18.39,-38.886 v 0 -0.199 c -0.02,-0.614 -0.01,-1.122 -0.03,-1.75 h 0.03 v -32.032 l 41.29,20 v 12.032 h 0.01 c 0,0.273 -0.01,0.527 -0.01,0.796 v 1.153 h -0.02 c -0.23,51.859 -10.13,80.211 -60.15,80.211 -49.19,0 -64.12,-23.125 -64.12,-77.731 0,-114.121 91.83,-117.57 89.87,-201.191 -1,-30.004 -10.9,-39.844 -26.74,-39.844 -15.83,0 -22.78,12.293 -21.81,40.824 h -0.03 v 30.825 l -41.29,-20 v -13.981 h 0.05 c 0.53,-51.078 13.95,-78.996 63.57,-78.996 49.2,0 67.57,26.566 67.57,81.172 0,113.144 -91.83,127.406 -89.87,201.191" /><path
         id="path32"
         style="fill:#000;fill-opacity:1;fill-rule:nonzero;stroke:none"
         d="m 1451.3,1041.71 h 41.82 V 729.832 h 83.14 l -30,-41.32 h -94.96 v 353.198" /><path
         id="path34"
         style="fill:#000;fill-opacity:1;fill-rule:nonzero;stroke:none"
         d="m 1108.92,807.59 15.78,102.129 15.79,-102.129 z m 49.97,-119.078 h 44.27 l -62.47,353.198 h -31.98 l -62.48,-353.198 h 44.28 l 14.09,91.148 h 40.2 l 14.09,-91.148" /><path
         id="path36"
         style="fill:#000;fill-opacity:1;fill-rule:nonzero;stroke:none"
         d="m 66.9727,23.25 c 3.25,2.1016 4.8789,5.3516 4.8789,9.75 0,8.6992 -6.4493,13.0469 -19.3516,13.0469 H 24.1523 V 20.1016 H 52.5 c 6.3984,0 11.2188,1.0468 14.4727,3.1484 z M 24.1523,88.4961 v -24.75 h 24.1485 c 5.9961,0 10.5469,1.0508 13.6484,3.1523 3.0977,2.1016 4.6485,5.1993 4.6485,9.3008 0,4.1016 -1.5508,7.1719 -4.6485,9.2227 -3.1015,2.0508 -7.6523,3.0742 -13.6484,3.0742 z M 91.2031,46.8711 C 94.5977,42.4258 96.2969,36.9492 96.2969,30.4492 96.2969,21.25 92.7227,14.1719 85.5781,9.23047 78.4219,4.26953 67.9961,1.80078 54.2969,1.80078 H 0 V 106.801 h 51.2969 c 12.8008,0 22.625,-2.453 29.4765,-7.3518 6.8477,-4.9023 10.2774,-11.5508 10.2774,-19.9492 0,-5.1016 -1.2266,-9.6523 -3.6797,-13.6523 -2.4492,-4 -5.8711,-7.1485 -10.2734,-9.4493 6.0039,-1.8984 10.6992,-5.0781 14.1054,-9.5273" /><path
         id="path38"
         style="fill:#000;fill-opacity:1;fill-rule:nonzero;stroke:none"
         d="M 188.398,39 V 1.80078 h -24.3 V 39.3008 l -40.653,67.5002 h 25.801 l 28.051,-46.6526 28.051,46.6526 h 23.851 L 188.398,39" /><path
         id="path40"
         style="fill:#000;fill-opacity:1;fill-rule:nonzero;stroke:none"
         d="M 428.395,1.80078 428.246,64.7969 397.344,12.8984 h -10.949 l -30.75,50.5508 V 1.80078 H 332.848 V 106.801 h 20.097 l 39.301,-65.2502 38.699,65.2502 h 19.95 l 0.3,-105.00022 h -22.8" /><path
         id="path42"
         style="fill:#000;fill-opacity:1;fill-rule:nonzero;stroke:none"
         d="M 563.098,42.75 546.445,82.9492 529.797,42.75 Z m 7.648,-18.4492 h -48.75 L 512.695,1.80078 H 487.797 L 534.594,106.801 h 24 L 605.547,1.80078 h -25.504 l -9.297,22.50002" /><path
         id="path44"
         style="fill:#000;fill-opacity:1;fill-rule:nonzero;stroke:none"
         d="M 702.738,82.2734 C 698.941,85.4219 693.391,87 686.09,87 H 666.289 V 50.3984 h 19.801 c 7.301,0 12.851,1.6016 16.648,4.8008 3.801,3.2031 5.703,7.6992 5.703,13.5 0,5.8985 -1.902,10.4219 -5.703,13.5742 z M 708.891,1.80078 688.645,31.0508 H 666.289 V 1.80078 H 641.992 V 106.801 h 45.449 c 9.301,0 17.372,-1.555 24.223,-4.649 6.852,-3.1012 12.125,-7.4997 15.824,-13.2028 3.703,-5.6992 5.555,-12.4492 5.555,-20.25 0,-7.7969 -1.875,-14.5273 -5.625,-20.1758 -3.75,-5.6523 -9.078,-9.9726 -15.977,-12.9726 L 734.988,1.80078 h -26.097" /><path
         id="path46"
         style="fill:#000;fill-opacity:1;fill-rule:nonzero;stroke:none"
         d="M 838.484,82.2734 C 834.688,85.4219 829.137,87 821.836,87 H 802.035 V 50.3984 h 19.801 c 7.301,0 12.852,1.6016 16.648,4.8008 3.801,3.2031 5.704,7.6992 5.704,13.5 0,5.8985 -1.903,10.4219 -5.704,13.5742 z M 844.641,1.80078 824.391,31.0508 H 802.035 V 1.80078 H 777.738 V 106.801 h 45.45 c 9.3,0 17.375,-1.555 24.222,-4.649 6.852,-3.1012 12.125,-7.4997 15.828,-13.2028 3.7,-5.6992 5.551,-12.4492 5.551,-20.25 0,-7.7969 -1.875,-14.5273 -5.625,-20.1758 -3.75,-5.6523 -9.078,-9.9726 -15.976,-12.9726 l 23.55,-33.75002 h -26.097" /><path
         id="path48"
         style="fill:#000;fill-opacity:1;fill-rule:nonzero;stroke:none"
         d="m 913.492,106.801 h 24.297 V 1.80078 H 913.492 V 106.801" /><path
         id="path50"
         style="fill:#000;fill-opacity:1;fill-rule:nonzero;stroke:none"
         d="m 1055.83,24.9688 c 5,2.8515 8.93,6.832 11.78,11.9296 2.85,5.1016 4.28,10.8985 4.28,17.4024 0,6.4961 -1.43,12.2969 -4.28,17.3984 -2.85,5.1016 -6.78,9.0742 -11.78,11.9258 -5,2.8477 -10.59,4.2734 -16.79,4.2734 -6.2,0 -11.8,-1.4257 -16.8,-4.2734 -5.01,-2.8516 -8.92,-6.8242 -11.78,-11.9258 -2.85,-5.1015 -4.27,-10.9023 -4.27,-17.3984 0,-6.5039 1.42,-12.3008 4.27,-17.4024 2.86,-5.0976 6.77,-9.0781 11.78,-11.9296 5,-2.8399 10.6,-4.2696 16.8,-4.2696 6.2,0 11.79,1.4297 16.79,4.2696 z M 1009.57,7.05078 c -8.75,4.69922 -15.609,11.16802 -20.562,19.41802 -4.949,8.25 -7.422,17.5273 -7.422,27.832 0,10.2969 2.473,19.5742 7.422,27.8242 4.953,8.2461 11.812,14.7227 20.562,19.426 8.75,4.695 18.57,7.051 29.47,7.051 10.9,0 20.7,-2.356 29.39,-7.051 8.7,-4.7033 15.56,-11.1799 20.56,-19.426 5,-8.25 7.5,-17.5273 7.5,-27.8242 0,-10.3047 -2.5,-19.582 -7.5,-27.832 -5,-8.25 -11.86,-14.7188 -20.56,-19.41802 C 1059.74,2.35156 1049.94,0 1039.04,0 c -10.9,0 -20.72,2.35156 -29.47,7.05078" /><path
         id="path52"
         style="fill:#000;fill-opacity:1;fill-rule:nonzero;stroke:none"
         d="m 1160.54,87 h -33.6 v 19.801 h 91.5 V 87 h -33.6 V 1.80078 h -24.3 V 87" /><path
         id="path54"
         style="fill:#000;fill-opacity:1;fill-rule:nonzero;stroke:none"
         d="m 1280.24,87 h -33.6 v 19.801 h 91.5 V 87 h -33.6 V 1.80078 h -24.3 V 87" /><path
         id="path56"
         style="fill:#000;fill-opacity:1;fill-rule:nonzero;stroke:none"
         d="m 1444.64,106.801 h 24.3 V 1.80078 h -24.3 V 106.801" /><path
         id="path58"
         style="fill:#000;fill-opacity:1;fill-rule:nonzero;stroke:none"
         d="M 1615.64,106.801 V 1.80078 h -19.95 L 1543.34,65.5508 V 1.80078 h -23.99 V 106.801 h 20.09 l 52.2,-63.7502 v 63.7502 h 24" /><path
         id="path60"
         style="fill:#000;fill-opacity:1;fill-rule:nonzero;stroke:none"
         d="m 1687.79,87 h -33.6 v 19.801 h 91.5 V 87 h -33.6 V 1.80078 h -24.3 V 87" /><path
         id="path62"
         style="fill:#000;fill-opacity:1;fill-rule:nonzero;stroke:none"
         d="M 1865.54,21.3008 V 1.80078 h -81.3 V 106.801 h 79.34 V 87.2969 h -55.19 V 64.5 h 48.75 V 45.5977 h -48.75 V 21.3008 h 57.15" /><path
         id="path64"
         style="fill:#000;fill-opacity:1;fill-rule:nonzero;stroke:none"
         d="M 1971.13,82.2734 C 1967.32,85.4219 1961.78,87 1954.48,87 h -19.8 V 50.3984 h 19.8 c 7.3,0 12.84,1.6016 16.65,4.8008 3.8,3.2031 5.7,7.6992 5.7,13.5 0,5.8985 -1.9,10.4219 -5.7,13.5742 z m 6.15,-80.47262 -20.25,29.25002 h -22.35 V 1.80078 h -24.3 V 106.801 h 45.45 c 9.3,0 17.37,-1.555 24.23,-4.649 6.84,-3.1012 12.12,-7.4997 15.82,-13.2028 3.7,-5.6992 5.55,-12.4492 5.55,-20.25 0,-7.7969 -1.88,-14.5273 -5.63,-20.1758 -3.75,-5.6523 -9.07,-9.9726 -15.97,-12.9726 l 23.55,-33.75002 h -26.1" /><path
         id="path66"
         style="fill:#000;fill-opacity:1;fill-rule:nonzero;stroke:none"
         d="M 2142.42,106.801 V 1.80078 h -19.95 L 2070.12,65.5508 V 1.80078 h -24 V 106.801 h 20.1 l 52.2,-63.7502 v 63.7502 h 24" /><path
         id="path68"
         style="fill:#000;fill-opacity:1;fill-rule:nonzero;stroke:none"
         d="M 2254.33,42.75 2237.69,82.9492 2221.04,42.75 Z m 7.65,-18.4492 h -48.75 l -9.29,-22.50002 h -24.91 l 46.8,105.00022 h 24 L 2296.78,1.80078 h -25.5 l -9.3,22.50002" /><path
         id="path70"
         style="fill:#000;fill-opacity:1;fill-rule:nonzero;stroke:none"
         d="m 2349.73,87 h -33.61 v 19.801 h 91.51 V 87 h -33.61 V 1.80078 h -24.29 V 87" /><path
         id="path72"
         style="fill:#000;fill-opacity:1;fill-rule:nonzero;stroke:none"
         d="m 2446.17,106.801 h 24.3 V 1.80078 h -24.3 V 106.801" /><path
         id="path74"
         style="fill:#000;fill-opacity:1;fill-rule:nonzero;stroke:none"
         d="m 2588.52,24.9688 c 5,2.8515 8.92,6.832 11.77,11.9296 2.85,5.1016 4.28,10.8985 4.28,17.4024 0,6.4961 -1.43,12.2969 -4.28,17.3984 -2.85,5.1016 -6.77,9.0742 -11.77,11.9258 -5,2.8477 -10.6,4.2734 -16.8,4.2734 -6.2,0 -11.8,-1.4257 -16.8,-4.2734 -5.01,-2.8516 -8.92,-6.8242 -11.78,-11.9258 -2.85,-5.1015 -4.27,-10.9023 -4.27,-17.3984 0,-6.5039 1.42,-12.3008 4.27,-17.4024 2.86,-5.0976 6.77,-9.0781 11.78,-11.9296 5,-2.8399 10.6,-4.2696 16.8,-4.2696 6.2,0 11.8,1.4297 16.8,4.2696 z M 2542.25,7.05078 c -8.75,4.69922 -15.61,11.16802 -20.56,19.41802 -4.95,8.25 -7.42,17.5273 -7.42,27.832 0,10.2969 2.47,19.5742 7.42,27.8242 4.95,8.2461 11.81,14.7227 20.56,19.426 8.75,4.695 18.57,7.051 29.47,7.051 10.9,0 20.7,-2.356 29.39,-7.051 8.7,-4.7033 15.56,-11.1799 20.56,-19.426 5,-8.25 7.5,-17.5273 7.5,-27.8242 0,-10.3047 -2.5,-19.582 -7.5,-27.832 -5,-8.25 -11.86,-14.7188 -20.56,-19.41802 C 2592.42,2.35156 2582.62,0 2571.72,0 2560.82,0 2551,2.35156 2542.25,7.05078" /><path
         id="path76"
         style="fill:#000;fill-opacity:1;fill-rule:nonzero;stroke:none"
         d="M 2769.27,106.801 V 1.80078 h -19.95 L 2696.96,65.5508 V 1.80078 h -23.99 V 106.801 h 20.1 l 52.19,-63.7502 v 63.7502 h 24.01" /><path
         id="path78"
         style="fill:#000;fill-opacity:1;fill-rule:nonzero;stroke:none"
         d="M 2881.17,42.75 2864.53,82.9492 2847.88,42.75 Z m 7.66,-18.4492 h -48.75 l -9.3,-22.50002 h -24.9 l 46.8,105.00022 h 24 L 2923.62,1.80078 h -25.49 l -9.3,22.50002" /><path
         id="path80"
         style="fill:#000;fill-opacity:1;fill-rule:nonzero;stroke:none"
         d="m 2960.08,106.801 h 24.3 V 21.6016 h 52.65 V 1.80078 h -76.95 V 106.801" /><path
         id="path82"
         style="fill:#000;fill-opacity:1;fill-rule:nonzero;stroke:none"
         d="m 1833.99,1041.71 h 41.82 V 729.832 h 83.15 l -30,-41.32 h -94.97 v 353.198" /><path
         id="path84"
         style="fill:#000;fill-opacity:1;fill-rule:nonzero;stroke:none"
         d="m 2121.3,885.77 h -83.64 v -41.321 h 83.64 v 41.321" /></g></g></svg>